<svg version="1.1" id="Layer_1" xmlns="http://www.w3.org/2000/svg" xmlns:xlink="http://www.w3.org/1999/xlink" x="0px" y="0px"
	 width="100%" viewBox="0 0 1024 1024" enable-background="new 0 0 1024 1024" xml:space="preserve">
<path fill="#000000" opacity="1.000000" stroke="none" 
	d="
M444.999939,641.263550 
	C411.501068,641.253723 378.502167,641.269470 345.503357,641.217224 
	C336.447815,641.202881 328.005157,639.216125 320.987854,632.982544 
	C310.908234,624.028809 308.654419,612.450928 309.975800,599.788330 
	C311.767212,582.621582 313.735535,565.472839 315.690460,548.323547 
	C317.476654,532.654236 319.365387,516.996582 321.172791,501.329559 
	C322.694885,488.135498 324.162994,474.935181 325.658752,461.738098 
	C327.528290,445.243011 329.410400,428.749359 331.270630,412.253235 
	C332.740723,399.217010 334.173553,386.176605 335.645447,373.140594 
	C337.470856,356.974243 339.305664,340.808960 341.164642,324.646454 
	C341.942322,317.884766 342.880096,311.140594 343.591766,304.372345 
	C345.160370,289.454498 354.382843,280.910217 369.400452,280.799774 
	C382.399292,280.704193 395.399353,280.786774 408.398895,280.780518 
	C416.679779,280.776550 416.552826,280.765839 416.719238,272.223083 
	C416.948975,260.432556 415.727814,248.586792 418.336304,236.882278 
	C425.333313,205.485779 444.045532,183.823471 473.685638,172.171219 
	C510.094482,157.858017 548.956909,166.846024 575.789856,195.272476 
	C591.042480,211.430969 598.447632,231.094925 599.177734,253.237595 
	C599.424805,260.729126 599.401550,268.241821 599.147217,275.732788 
	C599.010437,279.760895 600.583435,280.912842 604.399597,280.864136 
	C617.230347,280.700378 630.064514,280.801849 642.897339,280.787994 
	C660.950806,280.768524 669.422363,288.368195 671.422974,306.276276 
	C672.876465,319.287201 674.430298,332.286896 675.959778,345.466980 
	C669.195435,347.828766 662.581970,348.534485 656.139526,349.937927 
	C653.050537,350.610870 653.034790,348.026306 652.818909,346.158661 
	C651.388855,333.784821 649.903381,321.413086 648.801086,309.008270 
	C648.474121,305.328827 647.109375,304.071930 643.588867,304.092834 
	C630.256592,304.172058 616.923157,304.151855 603.590942,304.051971 
	C600.357544,304.027710 599.049622,305.355591 599.194763,308.531036 
	C599.323975,311.358337 599.325745,314.200165 599.208862,317.028351 
	C598.906860,324.335602 594.014648,329.293884 587.303101,329.215332 
	C580.712402,329.138214 576.682556,324.503235 576.596680,316.901367 
	C576.451294,304.033539 576.451233,304.054413 563.534607,304.052032 
	C524.369507,304.044891 485.204376,304.012390 446.039276,304.009583 
	C439.434509,304.009125 439.431793,304.054596 439.384827,310.656158 
	C439.368195,312.989319 439.382019,315.322784 439.358185,317.655823 
	C439.285767,324.742981 434.820526,329.237244 427.856995,329.246277 
	C421.621338,329.254364 416.849518,324.310455 416.690033,317.615784 
	C416.626556,314.950684 416.445129,312.258789 416.722412,309.621674 
	C417.200043,305.079285 415.111206,303.914734 410.913666,303.973328 
	C398.083405,304.152435 385.248016,304.109863 372.416565,303.971649 
	C368.393066,303.928284 366.566650,305.071411 366.112335,309.526764 
	C364.074432,329.510529 361.639648,349.454193 359.303009,369.407074 
	C356.387360,394.304352 353.366913,419.189484 350.505157,444.092896 
	C348.022369,465.698547 345.748535,487.328156 343.288086,508.936432 
	C341.091400,528.227844 338.738373,547.501404 336.516663,566.790039 
	C335.967407,571.558777 335.660156,576.355347 335.156433,582.113037 
	C341.268463,575.061523 346.747498,568.697021 352.272766,562.372925 
	C386.915894,522.720947 421.539520,483.051880 456.239105,443.449371 
	C465.556519,432.815491 477.953888,431.921356 489.014679,441.149017 
	C508.592560,457.482178 526.991699,475.144806 546.013000,492.107086 
	C552.851624,498.205414 559.684265,504.311188 566.453979,510.485443 
	C568.506042,512.356934 570.064270,512.965576 572.162781,510.361359 
	C603.838684,471.051880 636.349792,432.434387 668.868408,393.823273 
	C669.272644,393.343292 669.512329,392.724731 670.366943,391.229279 
	C661.040039,393.189850 652.548340,394.981476 644.053162,396.756531 
	C641.452759,397.299927 638.864319,398.017578 636.233215,398.274750 
	C628.758972,399.005280 623.707825,395.362518 622.750610,388.782410 
	C621.763428,381.996338 625.671265,376.428314 632.699219,374.877502 
	C642.112305,372.800354 651.556396,370.863647 660.982605,368.845123 
	C672.684814,366.339233 684.388855,363.841156 696.080017,361.284332 
	C707.513733,358.783783 713.065857,363.068054 713.108826,374.703156 
	C713.178345,393.535492 713.155457,412.368317 713.133423,431.200867 
	C713.128052,435.803802 712.562012,440.264465 708.325500,443.169342 
	C700.422607,448.588165 690.445435,443.539734 689.965149,433.662170 
	C689.617554,426.512421 689.924377,419.332428 689.839294,412.167145 
	C689.820557,410.587372 690.320679,408.862396 688.800354,406.893890 
	C686.296631,409.694000 683.835205,412.303711 681.530823,415.045502 
	C649.699768,452.919342 617.371277,490.377350 586.552307,529.096863 
	C578.135071,539.671936 564.944275,540.536133 554.443359,531.251282 
	C539.840942,518.340027 525.483521,505.151459 511.027618,492.074524 
	C499.909210,482.016693 488.693787,472.062042 477.757721,461.809509 
	C474.772095,459.010437 472.980621,459.262482 470.475098,462.134003 
	C441.012543,495.900085 411.521027,529.640991 381.963196,563.323730 
	C367.679565,579.600708 353.238190,595.739319 338.877441,611.948792 
	C338.125275,612.797729 337.459351,613.723145 336.641327,614.754028 
	C339.410309,618.352478 343.236267,617.827698 346.787354,617.832764 
	C376.786224,617.875793 406.785187,617.851685 436.784119,617.855652 
	C513.447998,617.865906 590.111938,617.879944 666.775818,617.893066 
	C677.751831,617.894958 681.977051,612.345398 680.556824,600.575928 
	C677.791687,577.660217 675.305664,554.710999 672.643188,531.782715 
	C670.421570,512.651062 668.216248,493.516357 665.794434,474.409546 
	C664.755676,466.214203 667.991760,460.087158 674.625977,458.848633 
	C681.341248,457.594940 687.965088,462.764557 689.068970,470.772369 
	C690.429138,480.638702 691.227966,490.581451 692.336182,500.483704 
	C694.126953,516.483887 695.988098,532.476196 697.789490,548.475159 
	C699.330994,562.165588 700.844055,575.859253 702.342529,589.554504 
	C703.064758,596.155334 704.578064,602.788147 703.815369,609.397217 
	C701.493225,629.520996 687.911926,641.120789 666.485840,641.191101 
	C621.987793,641.337158 577.489075,641.252258 532.990601,641.259033 
	C503.827057,641.263428 474.663513,641.262207 444.999939,641.263550 
M556.499329,280.839966 
	C561.831299,280.819550 567.163269,280.795258 572.495239,280.780640 
	C574.684998,280.774628 576.632874,280.360962 576.581726,277.605835 
	C576.362732,265.812408 577.785461,253.921783 575.122864,242.261627 
	C566.672913,205.256622 531.381775,183.984665 498.206512,189.067886 
	C469.922638,193.401627 447.316467,213.507111 441.108246,241.258362 
	C438.678711,252.118774 439.519531,263.127686 439.399292,274.093933 
	C439.326324,280.750610 439.386719,280.808868 446.027679,280.813568 
	C482.518341,280.839355 519.008972,280.834595 556.499329,280.839966 
z"/>
<path fill="#000000" opacity="1.000000" stroke="none" 
	d="
M506.566040,748.045166 
	C506.424377,760.769104 506.247101,773.093445 506.416748,785.413147 
	C506.472748,789.479980 505.187500,791.066040 501.033051,791.011536 
	C486.829498,790.825012 490.042419,791.646729 489.622589,780.043762 
	C489.262085,770.081482 490.475708,760.084473 488.767944,750.146118 
	C487.818817,744.622620 484.918030,740.915771 479.438538,739.744141 
	C473.536926,738.482178 468.218048,740.055908 463.742035,744.152527 
	C462.070587,745.682312 462.390564,747.810242 462.388977,749.791870 
	C462.379364,761.949219 462.274963,774.108215 462.457977,786.262817 
	C462.509247,789.668762 461.578796,791.064941 458.021606,791.002991 
	C442.743683,790.736755 445.859772,792.207031 445.694885,778.979736 
	C445.499786,763.327515 445.762756,747.669617 445.577698,732.017212 
	C445.529388,727.929688 446.779602,726.123657 450.964508,726.617676 
	C452.607117,726.811584 454.298279,726.747620 455.955505,726.631897 
	C459.387115,726.392273 462.076477,726.939575 461.267151,732.293884 
	C468.134003,727.029358 475.072205,724.247803 482.979279,725.167053 
	C490.711487,726.065918 497.415131,728.825317 500.886536,736.508545 
	C508.733856,725.799194 519.546814,723.541199 531.515991,725.904968 
	C541.645874,727.905396 547.641846,734.697266 549.829773,744.764648 
	C550.179321,746.373108 550.315735,748.056091 550.324402,749.705811 
	C550.388245,761.862854 550.299744,774.021606 550.481812,786.176575 
	C550.531128,789.471985 549.792236,790.910767 546.135864,791.006409 
	C533.648010,791.333313 533.652344,791.466614 533.651550,779.098328 
	C533.651062,770.937927 533.725037,762.776489 533.624146,754.617310 
	C533.518921,746.112061 530.270020,741.316040 523.786377,739.719543 
	C516.647644,737.961853 510.774780,740.680054 506.566040,748.045166 
z"/>
<path fill="#000000" opacity="1.000000" stroke="none" 
	d="
M434.322662,769.906128 
	C429.479034,787.263000 407.489441,799.096619 387.236633,787.117798 
	C387.236633,795.096985 386.993378,802.672791 387.324768,810.223328 
	C387.534912,815.010986 385.954712,816.648865 381.101959,816.469727 
	C367.842102,815.980164 369.782349,818.136536 369.724121,805.029663 
	C369.616821,780.873962 369.776215,756.716797 369.588379,732.562073 
	C369.553619,728.094727 370.749207,725.981323 375.442902,726.617981 
	C376.915039,726.817749 378.439819,726.702820 379.936218,726.635681 
	C383.572357,726.472534 387.312836,726.098877 386.504791,731.863342 
	C403.857117,721.708008 420.021515,723.838928 429.766510,737.594299 
	C436.657013,747.320435 437.608063,758.177490 434.322662,769.906128 
M413.219543,744.280090 
	C410.745941,741.537476 407.433014,740.382996 403.987579,739.678101 
	C394.929108,737.824646 387.070740,744.224915 387.095276,753.310486 
	C387.106506,757.474609 387.462860,761.676758 387.024750,765.793701 
	C386.418945,771.486938 389.285583,774.462646 394.010193,776.459290 
	C398.023132,778.155151 402.110291,778.235657 406.192596,776.905518 
	C419.208130,772.665039 422.831818,757.119751 413.219543,744.280090 
z"/>
<path fill="#000000" opacity="1.000000" stroke="none" 
	d="
M182.526901,715.460754 
	C173.502411,717.520935 170.013962,720.351746 169.603165,725.632935 
	C169.230682,730.421936 173.087799,734.206360 181.128525,737.066589 
	C187.699783,739.404175 194.605209,740.707581 200.955200,743.751648 
	C209.613541,747.902222 215.278259,754.191895 215.137283,764.196472 
	C214.991302,774.554199 211.067947,783.085938 201.195282,787.703857 
	C185.809189,794.900513 170.499924,793.178528 155.313919,786.819153 
	C153.055252,785.873291 152.518890,784.158569 152.754135,781.989929 
	C153.164078,778.210693 153.608353,774.435303 154.040894,770.635071 
	C156.831390,770.000000 158.566650,771.931641 160.626953,772.762634 
	C169.357925,776.284485 178.194122,779.030396 187.729828,776.594055 
	C189.632660,776.107910 191.555191,775.331848 193.201492,774.273804 
	C199.465332,770.248230 199.084885,762.069946 192.569061,758.517944 
	C189.031296,756.589417 185.121826,755.699402 181.334183,754.460876 
	C177.389206,753.170898 173.378021,752.014099 169.567612,750.394714 
	C157.192490,745.135559 151.691116,736.527344 152.726791,724.475037 
	C153.678070,713.404907 161.946732,704.409363 174.112305,701.738220 
	C186.187820,699.086670 197.893326,700.638977 209.181412,705.644653 
	C211.464478,706.657043 212.662216,707.855164 211.764069,710.606201 
	C210.595383,714.185730 210.469528,718.095459 208.322342,721.833618 
	C200.124115,718.378113 192.041946,714.748596 182.526901,715.460754 
z"/>
<path fill="#000000" opacity="1.000000" stroke="none" 
	d="
M242.349716,723.684082 
	C242.349899,725.928711 242.349899,727.722412 242.349899,729.482849 
	C244.878052,730.024231 246.244705,728.534424 247.823654,727.780762 
	C263.207214,720.438354 285.856293,727.639160 285.387970,751.410034 
	C285.161560,762.901367 285.239319,774.402344 285.407532,785.895630 
	C285.460297,789.498657 284.317291,790.864258 280.605804,790.993164 
	C268.612152,791.409729 268.693634,791.535156 268.568573,779.840637 
	C268.468872,770.516724 268.158691,761.195007 267.927582,751.872620 
	C267.792389,746.417908 265.855652,742.172241 260.254456,740.298828 
	C254.720947,738.448059 246.751419,740.104858 243.442215,743.781433 
	C242.023392,745.357788 242.361771,747.211060 242.356552,748.997437 
	C242.320984,761.159485 242.188583,773.324463 242.412003,785.482483 
	C242.488861,789.665649 240.978607,791.022278 236.934204,790.984253 
	C222.066788,790.844360 224.966415,791.684753 224.885666,779.084290 
	C224.725510,754.094543 224.935150,729.102417 224.756027,704.112915 
	C224.722534,699.443787 225.969437,697.616455 230.921783,697.782654 
	C244.359970,698.233582 242.106583,696.339783 242.332016,709.238342 
	C242.413528,713.901978 242.347977,718.568115 242.349716,723.684082 
z"/>
<path fill="#000000" opacity="1.000000" stroke="none" 
	d="
M357.318909,773.993042 
	C350.870819,786.546631 340.442932,792.231262 327.126251,792.157471 
	C314.572937,792.087830 304.107025,787.363953 297.755005,775.744568 
	C289.481506,760.610413 293.742004,740.515137 307.255035,730.937683 
	C320.672974,721.427734 342.169586,723.349548 352.421204,735.607544 
	C361.956604,747.009094 362.550385,760.059814 357.318909,773.993042 
M311.668243,751.284119 
	C309.710815,757.039307 309.948669,762.707642 312.438141,768.248169 
	C315.391693,774.821533 320.884033,778.060852 328.408173,777.749512 
	C334.823242,777.484131 339.824463,773.685730 342.260376,767.366882 
	C343.670532,763.708801 343.866974,759.933716 343.642609,756.098694 
	C343.163239,747.905396 336.770508,740.706299 328.933319,739.496765 
	C322.010681,738.428345 315.215546,742.852051 311.668243,751.284119 
z"/>
<path fill="#000000" opacity="1.000000" stroke="none" 
	d="
M617.680054,774.933960 
	C619.615723,786.353455 619.121887,787.388184 608.185486,790.321533 
	C593.880432,794.158264 580.374756,792.994019 569.115295,782.223877 
	C558.700562,772.261780 557.360840,751.679199 565.990906,738.655273 
	C574.160400,726.326355 591.413574,721.496765 605.498291,727.596069 
	C617.028076,732.588928 624.344482,747.766724 621.335815,760.179565 
	C620.587463,763.267029 618.230408,762.807068 616.215454,762.823242 
	C604.728333,762.915527 593.239990,762.862183 581.752441,762.918518 
	C580.148010,762.926453 578.419983,762.284119 576.948914,763.474243 
	C576.829224,772.124023 583.273621,778.127258 593.138184,778.648804 
	C600.327881,779.028931 606.983765,777.395447 613.157288,773.668945 
	C614.763062,772.699646 616.759399,770.955750 617.680054,774.933960 
M580.668213,743.184570 
	C578.860229,745.711853 576.858643,748.175903 577.724426,751.930054 
	C585.702881,751.930054 593.504089,751.997620 601.303345,751.903809 
	C605.705078,751.850830 606.474060,750.513977 604.893982,746.258240 
	C601.485413,737.077759 589.846008,735.308472 580.668213,743.184570 
z"/>
<path fill="#000000" opacity="1.000000" stroke="none" 
	d="
M827.381897,752.186646 
	C823.177429,741.262756 826.697815,732.409912 837.633911,728.005676 
	C848.639465,723.573486 859.790527,724.616577 870.493164,729.633240 
	C873.629028,731.103088 874.088135,739.879700 871.270935,741.853943 
	C869.669800,742.975830 868.479919,741.569824 867.172607,741.005615 
	C860.990479,738.337463 854.733826,736.366272 847.878601,738.267334 
	C845.066406,739.047180 842.802856,740.444580 842.663452,743.507751 
	C842.533142,746.371277 844.686340,748.057068 847.125610,748.902527 
	C852.142029,750.641052 857.338562,751.879517 862.301941,753.746582 
	C869.236816,756.355286 875.074768,760.240356 876.466553,768.363586 
	C877.677002,775.428162 875.353760,781.318726 869.917908,785.625488 
	C857.808411,795.219666 838.905640,793.428650 826.896606,786.835876 
	C825.014954,785.802917 824.399048,784.160950 824.873535,782.200562 
	C825.648804,778.997559 825.704895,775.604858 827.570496,772.035706 
	C833.102722,774.998291 838.874207,777.315796 845.110107,778.305298 
	C848.676880,778.871216 852.058228,778.703369 855.339600,777.202454 
	C857.458191,776.233276 858.793091,774.715027 858.870544,772.226990 
	C858.951294,769.636169 857.511902,768.122498 855.325012,767.383667 
	C851.714417,766.163757 848.028625,765.162048 844.361755,764.113342 
	C837.458496,762.139221 831.328491,759.063782 827.381897,752.186646 
z"/>
<path fill="#000000" opacity="1.000000" stroke="none" 
	d="
M793.100830,740.860718 
	C782.080261,745.047424 777.010925,754.171448 779.845459,764.193420 
	C782.513489,773.626709 792.488525,778.822021 803.367310,776.861816 
	C808.009094,776.025330 811.905090,773.502319 816.487000,771.549622 
	C817.989014,776.634644 817.237000,781.245544 817.173279,785.799255 
	C817.155396,787.075073 816.067017,787.827515 815.014221,788.358643 
	C799.583862,796.142151 774.803223,792.634399 766.446777,775.262329 
	C760.460388,762.817261 760.618530,750.250671 768.738342,738.792725 
	C776.701538,727.556030 788.343567,724.077881 801.691650,725.332275 
	C805.696045,725.708557 809.535828,726.662292 813.334656,727.952515 
	C816.259338,728.945862 817.813477,730.629150 817.316162,733.859985 
	C816.790344,737.276245 816.336670,740.703613 815.725159,745.017212 
	C808.357056,741.717346 801.296997,738.729980 793.100830,740.860718 
z"/>
<path fill="#000000" opacity="1.000000" stroke="none" 
	d="
M657.352051,767.627258 
	C657.899048,777.135498 659.670044,778.027100 674.130493,776.341309 
	C676.047424,779.708069 675.393982,783.655273 676.066772,787.307373 
	C676.383057,789.024170 674.601685,789.760498 673.172241,790.268982 
	C665.107910,793.137939 657.125671,793.037415 649.430298,789.126404 
	C643.540588,786.133118 640.725342,781.058838 640.676453,774.521423 
	C640.602844,764.689819 640.476562,754.852478 640.734436,745.027161 
	C640.848511,740.679443 639.473572,738.903137 635.033020,739.286255 
	C633.074280,739.455261 630.237732,740.327820 629.395264,737.545715 
	C628.435425,734.375854 628.096863,730.883667 629.307800,727.740540 
	C629.961609,726.043579 632.271545,726.702454 633.880615,726.659180 
	C640.634521,726.477539 640.578979,726.501038 640.681213,719.635498 
	C640.727722,716.512695 640.216248,713.341553 641.362671,709.440002 
	C645.671570,709.440002 650.121460,709.498535 654.568726,709.416138 
	C656.904846,709.372864 657.342407,710.713074 657.332092,712.603333 
	C657.317627,715.269470 657.603760,717.966614 657.293945,720.595459 
	C656.705444,725.588440 658.939880,727.206909 663.593201,726.673828 
	C665.402466,726.466614 667.275940,726.817810 669.084534,726.607483 
	C673.359070,726.110413 674.503357,728.073914 674.404297,732.087646 
	C674.226074,739.317322 674.421204,739.299927 667.313232,739.364319 
	C656.390381,739.463440 657.395630,737.926331 657.354248,749.175842 
	C657.332153,755.175110 657.350464,761.174500 657.352051,767.627258 
z"/>
<path fill="#000000" opacity="1.000000" stroke="none" 
	d="
M702.901855,781.659363 
	C702.352905,792.379517 703.231140,790.793518 693.764221,790.904297 
	C685.647949,790.999268 685.643555,790.895813 685.639282,782.701965 
	C685.630493,765.885742 685.614746,749.069519 685.636047,732.253296 
	C685.638123,730.624512 685.267395,728.932800 686.073181,727.390198 
	C695.858765,725.092285 700.381714,726.279785 702.222839,732.005371 
	C707.762329,726.219238 714.271118,723.953857 722.120117,725.633545 
	C725.776428,726.415955 727.392456,727.984192 726.305969,731.758057 
	C725.264465,735.375549 725.699402,739.380188 723.828125,742.326721 
	C719.980408,742.326721 716.511475,742.142944 713.068909,742.366028 
	C706.433899,742.795715 702.376343,747.162964 702.433533,753.771423 
	C702.512634,762.917297 702.739807,772.061890 702.901855,781.659363 
z"/>
<path fill="#000000" opacity="1.000000" stroke="none" 
	d="
M752.337219,748.000244 
	C752.334778,760.962219 752.232239,773.425537 752.392517,785.885498 
	C752.438721,789.478760 751.287964,790.851257 747.601685,790.992981 
	C734.805847,791.484741 734.800842,791.597229 734.795044,778.962585 
	C734.787842,763.343506 734.900330,747.723328 734.730347,732.106140 
	C734.686829,728.109924 735.803162,726.466370 740.045105,726.585632 
	C754.555664,726.993958 752.076233,724.686340 752.326660,738.527710 
	C752.380798,741.517700 752.336243,744.509338 752.337219,748.000244 
z"/>
<path fill="#000000" opacity="1.000000" stroke="none" 
	d="
M733.702454,708.928467 
	C734.740356,701.738464 739.153198,698.013000 745.087097,698.893066 
	C750.690430,699.724121 753.870911,704.004944 753.312805,709.964355 
	C752.881531,714.568115 749.167236,717.986938 744.273865,718.284058 
	C738.671387,718.624207 735.199463,715.686401 733.702454,708.928467 
z"/>
</svg>